<svg xmlns="http://www.w3.org/2000/svg" version="1.1" xmlns:xlink="http://www.w3.org/1999/xlink" xmlns:svgjs="http://svgjs.dev/svgjs" viewBox="0 0 12.141023396074441 5.963183743551388"><g transform="matrix(1,0,0,1,0.7000777380762839,3.114881005475104)"><g><path d=" M 0.8535 -2.220446049250313e-16 Q 0.8475 0.06599999999999984 0.8452500000000001 0.12749999999999984 Q 0.843 0.18899999999999983 0.843 0.22199999999999986 Q 0.843 0.2519999999999998 0.8445 0.2789999999999998 Q 0.846 0.3059999999999998 0.8475 0.32399999999999984 L 0.8130000000000001 0.32399999999999984 Q 0.798 0.2144999999999998 0.7665000000000001 0.15074999999999983 Q 0.735 0.08699999999999986 0.68475 0.06074999999999986 Q 0.6345000000000001 0.03449999999999975 0.5670000000000001 0.03449999999999975 L 0.5055000000000001 0.03449999999999975 Q 0.4605 0.03449999999999975 0.43875000000000003 0.041999999999999815 Q 0.417 0.04949999999999988 0.40950000000000003 0.07124999999999981 Q 0.402 0.09299999999999986 0.402 0.1409999999999998 L 0.402 0.9209999999999998 Q 0.402 0.9674999999999998 0.40950000000000003 0.9899999999999998 Q 0.417 1.0124999999999997 0.43875000000000003 1.0199999999999998 Q 0.4605 1.0274999999999999 0.5055000000000001 1.0274999999999999 L 0.579 1.0274999999999999 Q 0.6465 1.0274999999999999 0.69825 0.9982499999999999 Q 0.75 0.9689999999999999 0.7867500000000001 0.8984999999999999 Q 0.8235 0.8279999999999998 0.843 0.7079999999999999 L 0.8775000000000001 0.7079999999999999 Q 0.873 0.7559999999999998 0.873 0.8339999999999999 Q 0.873 0.8684999999999998 0.8745 0.9314999999999998 Q 0.876 0.9944999999999998 0.8835000000000001 1.0619999999999998 Q 0.807 1.059 0.711 1.05825 Q 0.615 1.0574999999999999 0.54 1.0574999999999999 Q 0.489 1.0574999999999999 0.405 1.0574999999999999 Q 0.321 1.0574999999999999 0.2265 1.05825 Q 0.132 1.059 0.051000000000000004 1.0619999999999998 L 0.051000000000000004 1.0319999999999998 Q 0.099 1.029 0.123 1.0199999999999998 Q 0.147 1.011 0.15525 0.9839999999999999 Q 0.1635 0.9569999999999999 0.1635 0.9029999999999998 L 0.1635 0.1589999999999998 Q 0.1635 0.10349999999999981 0.15525 0.07724999999999982 Q 0.147 0.05099999999999971 0.12225 0.04124999999999979 Q 0.0975 0.03149999999999986 0.051000000000000004 0.029999999999999805 L 0.051000000000000004 -2.220446049250313e-16 Q 0.132 0.0014999999999998348 0.2265 0.0029999999999998916 Q 0.321 0.0044999999999997264 0.405 0.0044999999999997264 Q 0.489 0.0044999999999997264 0.54 0.0044999999999997264 Q 0.609 0.0044999999999997264 0.69675 0.00374999999999992 Q 0.7845 0.0029999999999998916 0.8535 -2.220446049250313e-16 M 0.6195 0.5129999999999998 Q 0.6195 0.5129999999999998 0.6195 0.5279999999999998 Q 0.6195 0.5429999999999998 0.6195 0.5429999999999998 L 0.357 0.5429999999999998 Q 0.357 0.5429999999999998 0.357 0.5279999999999998 Q 0.357 0.5129999999999998 0.357 0.5129999999999998 L 0.6195 0.5129999999999998 M 0.663 0.31499999999999984 Q 0.657 0.40049999999999986 0.6577500000000001 0.4454999999999998 Q 0.6585 0.4904999999999998 0.6585 0.5279999999999998 Q 0.6585 0.5654999999999999 0.66 0.6104999999999998 Q 0.6615 0.6554999999999997 0.6675 0.7409999999999999 L 0.633 0.7409999999999999 Q 0.6255000000000001 0.6884999999999999 0.6052500000000001 0.6434999999999998 Q 0.585 0.5984999999999998 0.5475 0.5707499999999999 Q 0.51 0.5429999999999998 0.45 0.5429999999999998 L 0.45 0.5129999999999998 Q 0.51 0.5129999999999998 0.546 0.47999999999999987 Q 0.582 0.44699999999999984 0.6015 0.4012499999999998 Q 0.621 0.3554999999999998 0.6285000000000001 0.31499999999999984 L 0.663 0.31499999999999984 M 1.489458251953125 -2.220446049250313e-16 L 1.489458251953125 0.029999999999999805 Q 1.438458251953125 0.03149999999999986 1.4122082519531252 0.04124999999999979 Q 1.385958251953125 0.05099999999999971 1.3769582519531252 0.07724999999999982 Q 1.367958251953125 0.10349999999999981 1.367958251953125 0.1589999999999998 L 1.367958251953125 0.9209999999999998 Q 1.367958251953125 0.9674999999999998 1.374708251953125 0.9899999999999998 Q 1.381458251953125 1.0124999999999997 1.401708251953125 1.0199999999999998 Q 1.421958251953125 1.0274999999999999 1.462458251953125 1.0274999999999999 L 1.535958251953125 1.0274999999999999 Q 1.604958251953125 1.0274999999999999 1.661208251953125 0.9854999999999998 Q 1.7174582519531252 0.9434999999999998 1.755708251953125 0.8677499999999998 Q 1.793958251953125 0.7919999999999998 1.808958251953125 0.6929999999999998 L 1.843458251953125 0.6929999999999998 Q 1.838958251953125 0.7439999999999998 1.838958251953125 0.8249999999999998 Q 1.838958251953125 0.8594999999999998 1.840458251953125 0.9254999999999998 Q 1.841958251953125 0.9914999999999998 1.849458251953125 1.0619999999999998 Q 1.772958251953125 1.059 1.676958251953125 1.05825 Q 1.580958251953125 1.0574999999999999 1.5059582519531252 1.0574999999999999 Q 1.454958251953125 1.0574999999999999 1.370958251953125 1.0574999999999999 Q 1.286958251953125 1.0574999999999999 1.192458251953125 1.05825 Q 1.097958251953125 1.059 1.016958251953125 1.0619999999999998 L 1.016958251953125 1.0319999999999998 Q 1.064958251953125 1.029 1.088958251953125 1.0199999999999998 Q 1.112958251953125 1.011 1.121208251953125 0.9839999999999999 Q 1.129458251953125 0.9569999999999999 1.129458251953125 0.9029999999999998 L 1.129458251953125 0.1589999999999998 Q 1.129458251953125 0.10349999999999981 1.121208251953125 0.07724999999999982 Q 1.112958251953125 0.05099999999999971 1.088208251953125 0.04124999999999979 Q 1.063458251953125 0.03149999999999986 1.016958251953125 0.029999999999999805 L 1.016958251953125 -2.220446049250313e-16 Q 1.054458251953125 0.0014999999999998348 1.1182082519531251 0.0029999999999998916 Q 1.181958251953125 0.0044999999999997264 1.253958251953125 0.0044999999999997264 Q 1.319958251953125 0.0044999999999997264 1.383708251953125 0.0029999999999998916 Q 1.447458251953125 0.0014999999999998348 1.489458251953125 -2.220446049250313e-16 M 2.41199267578125 -2.220446049250313e-16 Q 2.70749267578125 -2.220446049250313e-16 2.85149267578125 0.13424999999999976 Q 2.99549267578125 0.26849999999999985 2.99549267578125 0.5189999999999998 Q 2.99549267578125 0.6824999999999999 2.92499267578125 0.8047499999999999 Q 2.85449267578125 0.9269999999999998 2.72024267578125 0.9944999999999998 Q 2.58599267578125 1.0619999999999998 2.39849267578125 1.0619999999999998 Q 2.36249267578125 1.0619999999999998 2.2957426757812502 1.0597499999999997 Q 2.22899267578125 1.0574999999999999 2.1794926757812503 1.0574999999999999 Q 2.11349267578125 1.0574999999999999 2.04974267578125 1.05825 Q 1.98599267578125 1.059 1.94849267578125 1.0619999999999998 L 1.94849267578125 1.0319999999999998 Q 1.99649267578125 1.029 2.02049267578125 1.0199999999999998 Q 2.04449267578125 1.011 2.05274267578125 0.9839999999999999 Q 2.0609926757812502 0.9569999999999999 2.0609926757812502 0.9029999999999998 L 2.0609926757812502 0.1589999999999998 Q 2.0609926757812502 0.10349999999999981 2.05274267578125 0.07724999999999982 Q 2.04449267578125 0.05099999999999971 2.01974267578125 0.04124999999999979 Q 1.99499267578125 0.03149999999999986 1.94849267578125 0.029999999999999805 L 1.94849267578125 -2.220446049250313e-16 Q 1.98599267578125 0.0014999999999998348 2.04974267578125 0.00374999999999992 Q 2.11349267578125 0.005999999999999783 2.17649267578125 0.0044999999999997264 Q 2.23049267578125 0.0029999999999998916 2.29874267578125 0.0014999999999998348 Q 2.3669926757812503 -2.220446049250313e-16 2.41199267578125 -2.220446049250313e-16 M 2.41049267578125 0.026999999999999913 Q 2.34149267578125 0.026999999999999913 2.32049267578125 0.05249999999999977 Q 2.29949267578125 0.07799999999999985 2.29949267578125 0.1559999999999998 L 2.29949267578125 0.9059999999999998 Q 2.29949267578125 0.9839999999999999 2.32124267578125 1.0094999999999998 Q 2.3429926757812503 1.035 2.41199267578125 1.035 Q 2.53799267578125 1.035 2.61074267578125 0.9757499999999998 Q 2.68349267578125 0.9164999999999999 2.71499267578125 0.8024999999999998 Q 2.74649267578125 0.6884999999999999 2.74649267578125 0.5249999999999998 Q 2.74649267578125 0.2729999999999998 2.66849267578125 0.1499999999999998 Q 2.59049267578125 0.026999999999999913 2.41049267578125 0.026999999999999913" fill="#ffffff" fill-rule="nonzero"></path></g><g><path d=" M 0.28200000000000003 1.4702250000000001 Q 0.33075 1.4702250000000001 0.36075 1.4848500000000002 Q 0.39075 1.4994750000000003 0.417 1.5189750000000002 Q 0.42675 1.5264750000000002 0.432 1.5264750000000002 Q 0.44625000000000004 1.5264750000000002 0.45075 1.480725 L 0.468 1.480725 Q 0.4665 1.5084750000000002 0.46575 1.5482250000000002 Q 0.465 1.5879750000000001 0.465 1.6532250000000002 L 0.44775000000000004 1.6532250000000002 Q 0.4425 1.621725 0.435 1.5924750000000003 Q 0.4275 1.563225 0.41025 1.5422250000000002 Q 0.3885 1.5144750000000002 0.35325 1.4991000000000003 Q 0.318 1.4837250000000002 0.2805 1.4837250000000002 Q 0.243 1.4837250000000002 0.212625 1.5021000000000002 Q 0.18225 1.5204750000000002 0.1605 1.5549750000000002 Q 0.13875 1.5894750000000002 0.12712500000000002 1.6378500000000003 Q 0.1155 1.6862250000000003 0.1155 1.7469750000000002 Q 0.1155 1.8819750000000002 0.159 1.9446 Q 0.2025 2.007225 0.294 2.007225 Q 0.321 2.007225 0.340875 1.9993500000000002 Q 0.36075 1.991475 0.372 1.9839750000000003 Q 0.38625 1.9742250000000001 0.39 1.9656000000000002 Q 0.39375 1.9569750000000001 0.39375 1.9427250000000003 L 0.39375 1.8707250000000002 Q 0.39375 1.8399750000000001 0.38775 1.8249750000000002 Q 0.38175000000000003 1.8099750000000001 0.36562500000000003 1.8047250000000001 Q 0.34950000000000003 1.7994750000000002 0.318 1.7987250000000001 L 0.318 1.7837250000000002 Q 0.3315 1.7844750000000003 0.34950000000000003 1.7848500000000003 Q 0.3675 1.7852250000000003 0.387375 1.7856000000000003 Q 0.40725 1.785975 0.42375 1.785975 Q 0.4485 1.785975 0.468375 1.7852250000000003 Q 0.48825 1.7844750000000003 0.50175 1.7837250000000002 L 0.50175 1.7987250000000001 Q 0.48525 1.7994750000000002 0.47700000000000004 1.803975 Q 0.46875 1.8084750000000003 0.466125 1.8219750000000001 Q 0.4635 1.8354750000000002 0.4635 1.8632250000000001 L 0.4635 2.011725 L 0.4485 2.011725 Q 0.44775000000000004 1.9989750000000002 0.442875 1.9839750000000003 Q 0.438 1.9689750000000001 0.42825 1.9689750000000001 Q 0.42375 1.9689750000000001 0.41925 1.9712250000000002 Q 0.41475 1.9734750000000003 0.4035 1.9817250000000002 Q 0.37875000000000003 2.0004750000000002 0.35100000000000003 2.01135 Q 0.32325 2.022225 0.28650000000000003 2.022225 Q 0.20925 2.022225 0.154125 1.9903500000000003 Q 0.099 1.9584750000000002 0.06975 1.8984750000000001 Q 0.0405 1.8384750000000003 0.0405 1.7552250000000003 Q 0.0405 1.6674750000000003 0.07200000000000001 1.6037250000000003 Q 0.10350000000000001 1.539975 0.15787500000000002 1.5051 Q 0.21225 1.4702250000000001 0.28200000000000003 1.4702250000000001 M 0.777002197265625 1.4769750000000001 L 0.9600021972656251 1.9487250000000003 Q 0.9712521972656251 1.9772250000000002 0.985502197265625 1.9866000000000001 Q 0.9997521972656251 1.9959750000000003 1.0117521972656252 1.9967250000000003 L 1.0117521972656252 2.011725 Q 0.996752197265625 2.010225 0.9750021972656251 2.00985 Q 0.953252197265625 2.009475 0.931502197265625 2.009475 Q 0.902252197265625 2.009475 0.8767521972656251 2.00985 Q 0.8512521972656251 2.010225 0.8355021972656251 2.011725 L 0.8355021972656251 1.9967250000000003 Q 0.873752197265625 1.9952250000000002 0.8842521972656251 1.9836000000000003 Q 0.894752197265625 1.9719750000000003 0.879752197265625 1.9337250000000001 L 0.7402521972656251 1.5609750000000002 L 0.7522521972656251 1.551225 L 0.621752197265625 1.8902250000000003 Q 0.609752197265625 1.9202250000000003 0.607502197265625 1.9408500000000002 Q 0.6052521972656251 1.9614750000000003 0.6116271972656251 1.9734750000000003 Q 0.6180021972656251 1.985475 0.633377197265625 1.9907250000000003 Q 0.648752197265625 1.9959750000000003 0.672002197265625 1.9967250000000003 L 0.672002197265625 2.011725 Q 0.651002197265625 2.010225 0.628127197265625 2.00985 Q 0.6052521972656251 2.009475 0.5857521972656251 2.009475 Q 0.5670021972656251 2.009475 0.553877197265625 2.00985 Q 0.5407521972656251 2.010225 0.5295021972656251 2.011725 L 0.5295021972656251 1.9967250000000003 Q 0.5445021972656251 1.9929750000000002 0.560252197265625 1.9791000000000003 Q 0.5760021972656251 1.9652250000000002 0.5887521972656251 1.9314750000000003 L 0.7650021972656251 1.4769750000000001 Q 0.768002197265625 1.4769750000000001 0.7710021972656251 1.4769750000000001 Q 0.774002197265625 1.4769750000000001 0.777002197265625 1.4769750000000001 M 0.868502197265625 1.7957250000000002 L 0.868502197265625 1.8107250000000001 L 0.645002197265625 1.8107250000000001 L 0.6525021972656251 1.7957250000000002 L 0.868502197265625 1.7957250000000002 M 1.2224912109375001 1.480725 L 1.2224912109375001 1.4957250000000002 Q 1.1969912109375 1.4964750000000002 1.1838662109375002 1.5013500000000002 Q 1.1707412109375002 1.5062250000000001 1.1662412109375002 1.5193500000000002 Q 1.1617412109375 1.5324750000000003 1.1617412109375 1.5602250000000002 L 1.1617412109375 1.9322250000000003 Q 1.1617412109375 1.9592250000000002 1.1662412109375002 1.9727250000000003 Q 1.1707412109375002 1.9862250000000001 1.1838662109375002 1.9907250000000003 Q 1.1969912109375 1.9952250000000002 1.2224912109375001 1.9967250000000003 L 1.2224912109375001 2.011725 Q 1.2052412109375001 2.010225 1.1793662109375 2.00985 Q 1.1534912109375002 2.009475 1.1272412109375 2.009475 Q 1.0979912109375 2.009475 1.0724912109375002 2.00985 Q 1.0469912109375001 2.010225 1.0312412109375002 2.011725 L 1.0312412109375002 1.9967250000000003 Q 1.0567412109375 1.9952250000000002 1.0698662109375001 1.9907250000000003 Q 1.0829912109375002 1.9862250000000001 1.0874912109375001 1.9727250000000003 Q 1.0919912109375 1.9592250000000002 1.0919912109375 1.9322250000000003 L 1.0919912109375 1.5602250000000002 Q 1.0919912109375 1.5324750000000003 1.0874912109375001 1.5193500000000002 Q 1.0829912109375002 1.5062250000000001 1.0698662109375001 1.5013500000000002 Q 1.0567412109375 1.4964750000000002 1.0312412109375002 1.4957250000000002 L 1.0312412109375002 1.480725 Q 1.0469912109375001 1.481475 1.0724912109375002 1.4822250000000001 Q 1.0979912109375 1.4829750000000002 1.1272412109375 1.4829750000000002 Q 1.1534912109375002 1.4829750000000002 1.1793662109375 1.4822250000000001 Q 1.2052412109375001 1.481475 1.2224912109375001 1.480725 M 1.7639831542968754 1.480725 L 1.7639831542968754 1.4957250000000002 Q 1.7384831542968753 1.4964750000000002 1.7253581542968752 1.503225 Q 1.7122331542968752 1.5099750000000003 1.7077331542968752 1.5249750000000002 Q 1.7032331542968753 1.539975 1.7032331542968753 1.5677250000000003 L 1.7032331542968753 2.0154750000000003 Q 1.698733154296875 2.0154750000000003 1.6946081542968752 2.0154750000000003 Q 1.6904831542968752 2.0154750000000003 1.685983154296875 2.0154750000000003 L 1.3709831542968751 1.5287250000000001 L 1.3709831542968751 1.9247250000000002 Q 1.3709831542968751 1.9517250000000002 1.3758581542968753 1.9671000000000003 Q 1.3807331542968753 1.9824750000000002 1.3953581542968752 1.9888500000000002 Q 1.4099831542968753 1.9952250000000002 1.4392331542968753 1.9967250000000003 L 1.4392331542968753 2.011725 Q 1.4257331542968752 2.010225 1.4039831542968753 2.00985 Q 1.382233154296875 2.009475 1.3627331542968752 2.009475 Q 1.3439831542968752 2.009475 1.3248581542968751 2.00985 Q 1.305733154296875 2.010225 1.2929831542968753 2.011725 L 1.2929831542968753 1.9967250000000003 Q 1.3184831542968751 1.9952250000000002 1.3316081542968752 1.9888500000000002 Q 1.3447331542968752 1.9824750000000002 1.3492331542968752 1.9671000000000003 Q 1.3537331542968751 1.9517250000000002 1.3537331542968751 1.9247250000000002 L 1.3537331542968751 1.5602250000000002 Q 1.3537331542968751 1.5324750000000003 1.3492331542968752 1.5193500000000002 Q 1.3447331542968752 1.5062250000000001 1.3316081542968752 1.5013500000000002 Q 1.3184831542968751 1.4964750000000002 1.2929831542968753 1.4957250000000002 L 1.2929831542968753 1.480725 Q 1.305733154296875 1.481475 1.3248581542968751 1.4822250000000001 Q 1.3439831542968752 1.4829750000000002 1.3627331542968752 1.4829750000000002 Q 1.3792331542968752 1.4829750000000002 1.394233154296875 1.4822250000000001 Q 1.4092331542968752 1.481475 1.4212331542968752 1.480725 L 1.685983154296875 1.8887250000000002 L 1.685983154296875 1.5677250000000003 Q 1.685983154296875 1.539975 1.6811081542968753 1.5249750000000002 Q 1.6762331542968751 1.5099750000000003 1.6616081542968753 1.503225 Q 1.6469831542968751 1.4964750000000002 1.6177331542968751 1.4957250000000002 L 1.6177331542968751 1.480725 Q 1.6312331542968752 1.481475 1.6533581542968752 1.4822250000000001 Q 1.675483154296875 1.4829750000000002 1.6942331542968752 1.4829750000000002 Q 1.7137331542968752 1.4829750000000002 1.732858154296875 1.4822250000000001 Q 1.7519831542968751 1.481475 1.7639831542968754 1.480725 M 2.2154959716796876 1.480725 L 2.2154959716796876 1.4957250000000002 Q 2.189995971679688 1.4964750000000002 2.176870971679688 1.5013500000000002 Q 2.163745971679688 1.5062250000000001 2.1592459716796877 1.5193500000000002 Q 2.154745971679688 1.5324750000000003 2.154745971679688 1.5602250000000002 L 2.154745971679688 1.9322250000000003 Q 2.154745971679688 1.9592250000000002 2.1592459716796877 1.9727250000000003 Q 2.163745971679688 1.9862250000000001 2.176870971679688 1.9907250000000003 Q 2.189995971679688 1.9952250000000002 2.2154959716796876 1.9967250000000003 L 2.2154959716796876 2.011725 Q 2.198245971679688 2.010225 2.1723709716796877 2.00985 Q 2.1464959716796876 2.009475 2.120245971679688 2.009475 Q 2.0909959716796878 2.009475 2.0654959716796877 2.00985 Q 2.0399959716796876 2.010225 2.024245971679688 2.011725 L 2.024245971679688 1.9967250000000003 Q 2.049745971679688 1.9952250000000002 2.062870971679688 1.9907250000000003 Q 2.0759959716796876 1.9862250000000001 2.080495971679688 1.9727250000000003 Q 2.084995971679688 1.9592250000000002 2.084995971679688 1.9322250000000003 L 2.084995971679688 1.5602250000000002 Q 2.084995971679688 1.5324750000000003 2.080495971679688 1.5193500000000002 Q 2.0759959716796876 1.5062250000000001 2.062870971679688 1.5013500000000002 Q 2.049745971679688 1.4964750000000002 2.024245971679688 1.4957250000000002 L 2.024245971679688 1.480725 Q 2.0399959716796876 1.481475 2.0654959716796877 1.4822250000000001 Q 2.0909959716796878 1.4829750000000002 2.120245971679688 1.4829750000000002 Q 2.1464959716796876 1.4829750000000002 2.1723709716796877 1.4822250000000001 Q 2.198245971679688 1.481475 2.2154959716796876 1.480725 M 2.490737915039063 1.480725 Q 2.6249879150390627 1.480725 2.690237915039063 1.5478500000000002 Q 2.7554879150390628 1.6149750000000003 2.7554879150390628 1.7402250000000001 Q 2.7554879150390628 1.8219750000000001 2.723612915039063 1.8831000000000002 Q 2.691737915039063 1.9442250000000003 2.630987915039063 1.9779750000000003 Q 2.570237915039063 2.011725 2.4839879150390627 2.011725 Q 2.4727379150390627 2.011725 2.453987915039063 2.010975 Q 2.435237915039063 2.010225 2.4153629150390628 2.00985 Q 2.395487915039063 2.009475 2.3789879150390627 2.009475 Q 2.352737915039063 2.009475 2.327237915039063 2.00985 Q 2.301737915039063 2.010225 2.2859879150390627 2.011725 L 2.2859879150390627 1.9967250000000003 Q 2.311487915039063 1.9952250000000002 2.324612915039063 1.9907250000000003 Q 2.337737915039063 1.9862250000000001 2.342237915039063 1.9727250000000003 Q 2.346737915039063 1.9592250000000002 2.346737915039063 1.9322250000000003 L 2.346737915039063 1.5602250000000002 Q 2.346737915039063 1.5324750000000003 2.342237915039063 1.5193500000000002 Q 2.337737915039063 1.5062250000000001 2.324612915039063 1.5013500000000002 Q 2.311487915039063 1.4964750000000002 2.2859879150390627 1.4957250000000002 L 2.2859879150390627 1.480725 Q 2.301737915039063 1.481475 2.327237915039063 1.4826000000000001 Q 2.352737915039063 1.4837250000000002 2.3774879150390626 1.4829750000000002 Q 2.4037379150390628 1.4822250000000001 2.4367379150390627 1.481475 Q 2.469737915039063 1.480725 2.490737915039063 1.480725 M 2.4719879150390627 1.4942250000000001 Q 2.4374879150390627 1.4942250000000001 2.4269879150390627 1.5069750000000002 Q 2.416487915039063 1.5197250000000002 2.416487915039063 1.5587250000000001 L 2.416487915039063 1.9337250000000001 Q 2.416487915039063 1.9727250000000003 2.4273629150390628 1.985475 Q 2.4382379150390627 1.9982250000000001 2.4727379150390627 1.9982250000000001 Q 2.5544879150390627 1.9982250000000001 2.599487915039063 1.9686000000000001 Q 2.644487915039063 1.9389750000000001 2.662487915039063 1.8819750000000002 Q 2.680487915039063 1.8249750000000002 2.680487915039063 1.7432250000000002 Q 2.680487915039063 1.6592250000000002 2.6606129150390627 1.6041000000000003 Q 2.640737915039063 1.5489750000000002 2.595362915039063 1.5216000000000003 Q 2.549987915039063 1.4942250000000001 2.4719879150390627 1.4942250000000001 M 3.203275634765625 1.480725 Q 3.2002756347656254 1.5069750000000002 3.1991506347656253 1.5317250000000002 Q 3.1980256347656253 1.5564750000000003 3.1980256347656253 1.5692250000000003 Q 3.1980256347656253 1.5827250000000002 3.1987756347656253 1.5951000000000002 Q 3.1995256347656253 1.6074750000000002 3.2002756347656254 1.6157250000000003 L 3.183025634765625 1.6157250000000003 Q 3.1785256347656254 1.5714750000000002 3.170275634765625 1.5456000000000003 Q 3.1620256347656253 1.5197250000000002 3.1421506347656254 1.5088500000000002 Q 3.122275634765625 1.4979750000000003 3.0825256347656254 1.4979750000000003 L 3.020275634765625 1.4979750000000003 Q 2.994775634765625 1.4979750000000003 2.981650634765625 1.5021000000000002 Q 2.968525634765625 1.5062250000000001 2.9640256347656253 1.5193500000000002 Q 2.959525634765625 1.5324750000000003 2.959525634765625 1.5602250000000002 L 2.959525634765625 1.9322250000000003 Q 2.959525634765625 1.9592250000000002 2.9640256347656253 1.9727250000000003 Q 2.968525634765625 1.9862250000000001 2.981650634765625 1.9903500000000003 Q 2.994775634765625 1.9944750000000002 3.020275634765625 1.9944750000000002 L 3.075025634765625 1.9944750000000002 Q 3.122275634765625 1.9944750000000002 3.146650634765625 1.9817250000000002 Q 3.171025634765625 1.9689750000000001 3.181900634765625 1.9401000000000002 Q 3.192775634765625 1.9112250000000002 3.1980256347656253 1.8617250000000003 L 3.215275634765625 1.8617250000000003 Q 3.2130256347656254 1.8819750000000002 3.2130256347656254 1.9157250000000001 Q 3.2130256347656254 1.9299750000000002 3.214150634765625 1.9566000000000001 Q 3.215275634765625 1.9832250000000002 3.218275634765625 2.011725 Q 3.180025634765625 2.010225 3.1320256347656255 2.00985 Q 3.0840256347656254 2.009475 3.0465256347656253 2.009475 Q 3.030025634765625 2.009475 3.004150634765625 2.009475 Q 2.9782756347656254 2.009475 2.948275634765625 2.00985 Q 2.9182756347656253 2.010225 2.887525634765625 2.0106 Q 2.8567756347656252 2.010975 2.829025634765625 2.011725 L 2.829025634765625 1.9967250000000003 Q 2.854525634765625 1.9952250000000002 2.867650634765625 1.9907250000000003 Q 2.8807756347656253 1.9862250000000001 2.8852756347656254 1.9727250000000003 Q 2.889775634765625 1.9592250000000002 2.889775634765625 1.9322250000000003 L 2.889775634765625 1.5602250000000002 Q 2.889775634765625 1.5324750000000003 2.8852756347656254 1.5193500000000002 Q 2.8807756347656253 1.5062250000000001 2.867650634765625 1.5013500000000002 Q 2.854525634765625 1.4964750000000002 2.829025634765625 1.4957250000000002 L 2.829025634765625 1.480725 Q 2.8567756347656252 1.481475 2.887525634765625 1.4818500000000001 Q 2.9182756347656253 1.4822250000000001 2.948275634765625 1.4826000000000001 Q 2.9782756347656254 1.4829750000000002 3.004150634765625 1.4829750000000002 Q 3.030025634765625 1.4829750000000002 3.0465256347656253 1.4829750000000002 Q 3.0810256347656253 1.4829750000000002 3.124900634765625 1.4826000000000001 Q 3.168775634765625 1.4822250000000001 3.203275634765625 1.480725 M 3.074275634765625 1.7372250000000002 Q 3.074275634765625 1.7372250000000002 3.074275634765625 1.7447250000000003 Q 3.074275634765625 1.7522250000000001 3.074275634765625 1.7522250000000001 L 2.937025634765625 1.7522250000000001 Q 2.937025634765625 1.7522250000000001 2.937025634765625 1.7447250000000003 Q 2.937025634765625 1.7372250000000002 2.937025634765625 1.7372250000000002 L 3.074275634765625 1.7372250000000002 M 3.096025634765625 1.6382250000000003 Q 3.0930256347656253 1.680975 3.0934006347656253 1.703475 Q 3.0937756347656253 1.7259750000000003 3.0937756347656253 1.7447250000000003 Q 3.0937756347656253 1.7634750000000001 3.0945256347656254 1.785975 Q 3.0952756347656254 1.8084750000000003 3.098275634765625 1.8512250000000001 L 3.0810256347656253 1.8512250000000001 Q 3.078025634765625 1.8272250000000003 3.073900634765625 1.8043500000000001 Q 3.0697756347656253 1.7814750000000001 3.0559006347656252 1.7668500000000003 Q 3.042025634765625 1.7522250000000001 3.0090256347656252 1.7522250000000001 L 3.0090256347656252 1.7372250000000002 Q 3.0337756347656253 1.7372250000000002 3.0469006347656253 1.7271 Q 3.0600256347656254 1.7169750000000001 3.066025634765625 1.7012250000000002 Q 3.0720256347656254 1.6854750000000003 3.074275634765625 1.6686 Q 3.076525634765625 1.6517250000000003 3.078775634765625 1.6382250000000003 L 3.096025634765625 1.6382250000000003 M 3.5040322265625 1.4769750000000001 L 3.6870322265625 1.9487250000000003 Q 3.6982822265625 1.9772250000000002 3.7125322265625 1.9866000000000001 Q 3.7267822265625 1.9959750000000003 3.7387822265625 1.9967250000000003 L 3.7387822265625 2.011725 Q 3.7237822265625002 2.010225 3.7020322265625003 2.00985 Q 3.6802822265625 2.009475 3.6585322265625 2.009475 Q 3.6292822265625 2.009475 3.6037822265625 2.00985 Q 3.5782822265625 2.010225 3.5625322265625 2.011725 L 3.5625322265625 1.9967250000000003 Q 3.6007822265625 1.9952250000000002 3.6112822265625 1.9836000000000003 Q 3.6217822265625 1.9719750000000003 3.6067822265625002 1.9337250000000001 L 3.4672822265625003 1.5609750000000002 L 3.4792822265625 1.551225 L 3.3487822265625002 1.8902250000000003 Q 3.3367822265625002 1.9202250000000003 3.3345322265625 1.9408500000000002 Q 3.3322822265625 1.9614750000000003 3.3386572265625 1.9734750000000003 Q 3.3450322265625 1.985475 3.3604072265625002 1.9907250000000003 Q 3.3757822265625 1.9959750000000003 3.3990322265625 1.9967250000000003 L 3.3990322265625 2.011725 Q 3.3780322265625 2.010225 3.3551572265625 2.00985 Q 3.3322822265625 2.009475 3.3127822265625 2.009475 Q 3.2940322265625 2.009475 3.2809072265625 2.00985 Q 3.2677822265625 2.010225 3.2565322265625 2.011725 L 3.2565322265625 1.9967250000000003 Q 3.2715322265625 1.9929750000000002 3.2872822265625 1.9791000000000003 Q 3.3030322265625 1.9652250000000002 3.3157822265625 1.9314750000000003 L 3.4920322265625 1.4769750000000001 Q 3.4950322265625 1.4769750000000001 3.4980322265625 1.4769750000000001 Q 3.5010322265625002 1.4769750000000001 3.5040322265625 1.4769750000000001 M 3.5955322265625 1.7957250000000002 L 3.5955322265625 1.8107250000000001 L 3.3720322265625002 1.8107250000000001 L 3.3795322265625 1.7957250000000002 L 3.5955322265625 1.7957250000000002 M 4.0358034667968745 1.6157250000000003 Q 4.055303466796874 1.6157250000000003 4.069553466796875 1.6299750000000002 Q 4.083803466796875 1.6442250000000003 4.083803466796875 1.6637250000000001 Q 4.083803466796875 1.6832250000000002 4.069553466796875 1.6974750000000003 Q 4.055303466796874 1.7117250000000002 4.0358034667968745 1.7117250000000002 Q 4.016303466796875 1.7117250000000002 4.002053466796875 1.6974750000000003 Q 3.987803466796875 1.6832250000000002 3.987803466796875 1.6637250000000001 Q 3.987803466796875 1.6442250000000003 4.002053466796875 1.6299750000000002 Q 4.016303466796875 1.6157250000000003 4.0358034667968745 1.6157250000000003 M 4.0358034667968745 1.9262250000000003 Q 4.055303466796874 1.9262250000000003 4.069553466796875 1.9404750000000002 Q 4.083803466796875 1.9547250000000003 4.083803466796875 1.9742250000000001 Q 4.083803466796875 1.9937250000000002 4.069553466796875 2.007975 Q 4.055303466796874 2.022225 4.0358034667968745 2.022225 Q 4.016303466796875 2.022225 4.002053466796875 2.007975 Q 3.987803466796875 1.9937250000000002 3.987803466796875 1.9742250000000001 Q 3.987803466796875 1.9547250000000003 4.002053466796875 1.9404750000000002 Q 4.016303466796875 1.9262250000000003 4.0358034667968745 1.9262250000000003 M 4.1655468749999995 1.4072250000000002 Q 4.241296875 1.4762250000000003 4.285921875 1.5688500000000003 Q 4.330546875 1.6614750000000003 4.330546875 1.7777250000000002 Q 4.330546875 1.8939750000000002 4.285921875 1.9866000000000001 Q 4.241296875 2.079225 4.1655468749999995 2.148225 L 4.155046874999999 2.138475 Q 4.218046875 2.064975 4.242796875 1.9776000000000002 Q 4.267546875 1.8902250000000003 4.267546875 1.7777250000000002 Q 4.267546875 1.6652250000000002 4.242796875 1.5778500000000002 Q 4.218046875 1.4904750000000002 4.155046874999999 1.4169750000000003 L 4.1655468749999995 1.4072250000000002 M 4.596819213867188 1.480725 Q 4.612569213867188 1.481475 4.638069213867188 1.4822250000000001 Q 4.663569213867188 1.4829750000000002 4.688319213867188 1.4829750000000002 Q 4.723569213867187 1.4829750000000002 4.755819213867188 1.4822250000000001 Q 4.788069213867187 1.481475 4.801569213867188 1.481475 Q 4.880319213867188 1.481475 4.920069213867188 1.5144750000000002 Q 4.9598192138671875 1.5474750000000002 4.9598192138671875 1.5992250000000001 Q 4.9598192138671875 1.6254750000000002 4.948944213867188 1.6506000000000003 Q 4.938069213867188 1.6757250000000001 4.9129442138671875 1.6963500000000002 Q 4.887819213867187 1.7169750000000001 4.845819213867188 1.7297250000000002 L 4.845819213867188 1.7312250000000002 Q 4.905069213867188 1.738725 4.938444213867188 1.7593500000000002 Q 4.971819213867188 1.7799750000000003 4.985319213867188 1.8077250000000002 Q 4.998819213867188 1.8354750000000002 4.998819213867188 1.8662250000000002 Q 4.998819213867188 1.9089750000000003 4.977444213867187 1.9416000000000002 Q 4.956069213867187 1.9742250000000001 4.915569213867188 1.9929750000000002 Q 4.875069213867188 2.011725 4.8188192138671875 2.011725 Q 4.802319213867188 2.011725 4.769319213867187 2.0106 Q 4.736319213867188 2.009475 4.689819213867188 2.009475 Q 4.663569213867188 2.009475 4.638069213867188 2.00985 Q 4.612569213867188 2.010225 4.596819213867188 2.011725 L 4.596819213867188 1.9967250000000003 Q 4.622319213867188 1.9952250000000002 4.635444213867188 1.9907250000000003 Q 4.648569213867187 1.9862250000000001 4.653069213867187 1.9727250000000003 Q 4.657569213867188 1.9592250000000002 4.657569213867188 1.9322250000000003 L 4.657569213867188 1.5602250000000002 Q 4.657569213867188 1.5324750000000003 4.653069213867187 1.5193500000000002 Q 4.648569213867187 1.5062250000000001 4.635444213867188 1.5013500000000002 Q 4.622319213867188 1.4964750000000002 4.596819213867188 1.4957250000000002 L 4.596819213867188 1.480725 M 4.782819213867188 1.4957250000000002 Q 4.7483192138671875 1.4957250000000002 4.737819213867188 1.5084750000000002 Q 4.727319213867188 1.5212250000000003 4.727319213867188 1.5602250000000002 L 4.727319213867188 1.9322250000000003 Q 4.727319213867188 1.9584750000000002 4.731819213867188 1.9719750000000003 Q 4.736319213867188 1.985475 4.7483192138671875 1.9899750000000003 Q 4.760319213867188 1.9944750000000002 4.783569213867188 1.9944750000000002 Q 4.857069213867188 1.9944750000000002 4.8904442138671875 1.9603500000000003 Q 4.923819213867188 1.9262250000000003 4.923819213867188 1.8632250000000001 Q 4.923819213867188 1.8054750000000002 4.892694213867188 1.773975 Q 4.861569213867187 1.7424750000000002 4.790319213867187 1.7424750000000002 L 4.713069213867188 1.7424750000000002 Q 4.713069213867188 1.7424750000000002 4.713069213867188 1.7361000000000002 Q 4.713069213867188 1.7297250000000002 4.713069213867188 1.7297250000000002 L 4.777569213867188 1.7297250000000002 Q 4.821819213867188 1.7297250000000002 4.845819213867188 1.7128500000000002 Q 4.869819213867188 1.6959750000000002 4.878819213867188 1.6678500000000003 Q 4.887819213867187 1.6397250000000003 4.887819213867187 1.6074750000000002 Q 4.887819213867187 1.551975 4.863444213867187 1.5238500000000001 Q 4.839069213867187 1.4957250000000002 4.782819213867188 1.4957250000000002 M 5.526822509765625 1.480725 L 5.526822509765625 1.4957250000000002 Q 5.501322509765625 1.4964750000000002 5.488197509765626 1.503225 Q 5.475072509765625 1.5099750000000003 5.470572509765625 1.5249750000000002 Q 5.466072509765626 1.539975 5.466072509765626 1.5677250000000003 L 5.466072509765626 1.7934750000000002 Q 5.466072509765626 1.8459750000000001 5.4593225097656255 1.8849750000000003 Q 5.452572509765625 1.9239750000000002 5.4353225097656255 1.9524750000000002 Q 5.416572509765626 1.9839750000000003 5.380572509765625 2.0031000000000003 Q 5.344572509765626 2.022225 5.298072509765626 2.022225 Q 5.262072509765625 2.022225 5.229447509765626 2.0136000000000003 Q 5.196822509765625 2.0049750000000004 5.172072509765625 1.9817250000000002 Q 5.150322509765625 1.9607250000000003 5.137947509765626 1.9374750000000003 Q 5.125572509765625 1.9142250000000003 5.121072509765625 1.8804750000000001 Q 5.116572509765626 1.8467250000000002 5.116572509765626 1.7957250000000002 L 5.116572509765626 1.5602250000000002 Q 5.116572509765626 1.5324750000000003 5.112072509765626 1.5193500000000002 Q 5.1075725097656255 1.5062250000000001 5.094447509765625 1.5013500000000002 Q 5.081322509765625 1.4964750000000002 5.055822509765625 1.4957250000000002 L 5.055822509765625 1.480725 Q 5.071572509765625 1.481475 5.097072509765625 1.4822250000000001 Q 5.122572509765625 1.4829750000000002 5.151822509765625 1.4829750000000002 Q 5.1780725097656255 1.4829750000000002 5.203947509765626 1.4822250000000001 Q 5.229822509765626 1.481475 5.2470725097656254 1.480725 L 5.2470725097656254 1.4957250000000002 Q 5.221572509765625 1.4964750000000002 5.208447509765626 1.5013500000000002 Q 5.195322509765625 1.5062250000000001 5.190822509765625 1.5193500000000002 Q 5.186322509765626 1.5324750000000003 5.186322509765626 1.5602250000000002 L 5.186322509765626 1.8084750000000003 Q 5.186322509765626 1.8467250000000002 5.190072509765625 1.8808500000000001 Q 5.193822509765625 1.914975 5.205447509765626 1.9408500000000002 Q 5.217072509765625 1.9667250000000003 5.241072509765625 1.9813500000000002 Q 5.265072509765625 1.9959750000000003 5.304822509765625 1.9959750000000003 Q 5.361822509765625 1.9959750000000003 5.392947509765626 1.9708500000000002 Q 5.424072509765625 1.9457250000000001 5.4364475097656255 1.9014750000000002 Q 5.448822509765625 1.8572250000000001 5.448822509765625 1.8017250000000002 L 5.448822509765625 1.5677250000000003 Q 5.448822509765625 1.539975 5.442447509765626 1.5249750000000002 Q 5.4360725097656255 1.5099750000000003 5.421072509765626 1.503225 Q 5.406072509765625 1.4964750000000002 5.380572509765625 1.4957250000000002 L 5.380572509765625 1.480725 Q 5.394072509765626 1.481475 5.416197509765626 1.4822250000000001 Q 5.438322509765626 1.4829750000000002 5.457072509765625 1.4829750000000002 Q 5.476572509765625 1.4829750000000002 5.495697509765625 1.4822250000000001 Q 5.514822509765626 1.481475 5.526822509765625 1.480725 M 5.77732763671875 1.480725 L 5.77732763671875 1.4957250000000002 Q 5.751827636718751 1.4964750000000002 5.738702636718751 1.5013500000000002 Q 5.725577636718751 1.5062250000000001 5.721077636718751 1.5193500000000002 Q 5.716577636718751 1.5324750000000003 5.716577636718751 1.5602250000000002 L 5.716577636718751 1.9322250000000003 Q 5.716577636718751 1.9592250000000002 5.721077636718751 1.9727250000000003 Q 5.725577636718751 1.9862250000000001 5.738702636718751 1.9907250000000003 Q 5.751827636718751 1.9952250000000002 5.77732763671875 1.9967250000000003 L 5.77732763671875 2.011725 Q 5.7600776367187505 2.010225 5.73420263671875 2.00985 Q 5.70832763671875 2.009475 5.682077636718751 2.009475 Q 5.652827636718751 2.009475 5.627327636718751 2.00985 Q 5.601827636718751 2.010225 5.586077636718751 2.011725 L 5.586077636718751 1.9967250000000003 Q 5.611577636718751 1.9952250000000002 5.624702636718751 1.9907250000000003 Q 5.63782763671875 1.9862250000000001 5.6423276367187505 1.9727250000000003 Q 5.646827636718751 1.9592250000000002 5.646827636718751 1.9322250000000003 L 5.646827636718751 1.5602250000000002 Q 5.646827636718751 1.5324750000000003 5.6423276367187505 1.5193500000000002 Q 5.63782763671875 1.5062250000000001 5.624702636718751 1.5013500000000002 Q 5.611577636718751 1.4964750000000002 5.586077636718751 1.4957250000000002 L 5.586077636718751 1.480725 Q 5.601827636718751 1.481475 5.627327636718751 1.4822250000000001 Q 5.652827636718751 1.4829750000000002 5.682077636718751 1.4829750000000002 Q 5.70832763671875 1.4829750000000002 5.73420263671875 1.4822250000000001 Q 5.7600776367187505 1.481475 5.77732763671875 1.480725 M 6.0390695800781256 1.480725 L 6.0390695800781256 1.4957250000000002 Q 6.013569580078126 1.4964750000000002 6.000444580078126 1.5013500000000002 Q 5.987319580078126 1.5062250000000001 5.982819580078126 1.5193500000000002 Q 5.978319580078126 1.5324750000000003 5.978319580078126 1.5602250000000002 L 5.978319580078126 1.9322250000000003 Q 5.978319580078126 1.9592250000000002 5.982819580078126 1.9727250000000003 Q 5.987319580078126 1.9862250000000001 6.000444580078126 1.9903500000000003 Q 6.013569580078126 1.9944750000000002 6.0390695800781256 1.9944750000000002 L 6.093819580078126 1.9944750000000002 Q 6.129069580078126 1.9944750000000002 6.151194580078126 1.9869750000000002 Q 6.173319580078126 1.9794750000000003 6.186444580078126 1.9633500000000002 Q 6.199569580078126 1.9472250000000002 6.206319580078126 1.9202250000000003 Q 6.213069580078126 1.8932250000000002 6.216819580078126 1.8542250000000002 L 6.234069580078126 1.8542250000000002 Q 6.231819580078126 1.8774750000000002 6.231819580078126 1.9157250000000001 Q 6.231819580078126 1.9299750000000002 6.232944580078126 1.9566000000000001 Q 6.234069580078126 1.9832250000000002 6.237069580078126 2.011725 Q 6.198819580078126 2.010225 6.150819580078126 2.00985 Q 6.102819580078126 2.009475 6.065319580078126 2.009475 Q 6.048819580078126 2.009475 6.022944580078126 2.009475 Q 5.997069580078126 2.009475 5.967069580078126 2.00985 Q 5.937069580078126 2.010225 5.906319580078126 2.0106 Q 5.875569580078126 2.010975 5.847819580078126 2.011725 L 5.847819580078126 1.9967250000000003 Q 5.873319580078126 1.9952250000000002 5.886444580078126 1.9907250000000003 Q 5.899569580078126 1.9862250000000001 5.904069580078126 1.9727250000000003 Q 5.908569580078126 1.9592250000000002 5.908569580078126 1.9322250000000003 L 5.908569580078126 1.5602250000000002 Q 5.908569580078126 1.5324750000000003 5.904069580078126 1.5193500000000002 Q 5.899569580078126 1.5062250000000001 5.886444580078126 1.5013500000000002 Q 5.873319580078126 1.4964750000000002 5.847819580078126 1.4957250000000002 L 5.847819580078126 1.480725 Q 5.863569580078126 1.481475 5.889069580078126 1.4822250000000001 Q 5.914569580078126 1.4829750000000002 5.943819580078126 1.4829750000000002 Q 5.970069580078126 1.4829750000000002 5.995944580078126 1.4822250000000001 Q 6.021819580078126 1.481475 6.0390695800781256 1.480725 M 6.501079101562501 1.480725 Q 6.635329101562501 1.480725 6.700579101562501 1.5478500000000002 Q 6.765829101562502 1.6149750000000003 6.765829101562502 1.7402250000000001 Q 6.765829101562502 1.8219750000000001 6.733954101562501 1.8831000000000002 Q 6.702079101562501 1.9442250000000003 6.641329101562501 1.9779750000000003 Q 6.580579101562502 2.011725 6.494329101562501 2.011725 Q 6.483079101562502 2.011725 6.464329101562502 2.010975 Q 6.445579101562501 2.010225 6.425704101562501 2.00985 Q 6.405829101562501 2.009475 6.389329101562502 2.009475 Q 6.3630791015625014 2.009475 6.337579101562501 2.00985 Q 6.312079101562501 2.010225 6.296329101562502 2.011725 L 6.296329101562502 1.9967250000000003 Q 6.321829101562502 1.9952250000000002 6.334954101562501 1.9907250000000003 Q 6.348079101562501 1.9862250000000001 6.352579101562501 1.9727250000000003 Q 6.357079101562501 1.9592250000000002 6.357079101562501 1.9322250000000003 L 6.357079101562501 1.5602250000000002 Q 6.357079101562501 1.5324750000000003 6.352579101562501 1.5193500000000002 Q 6.348079101562501 1.5062250000000001 6.334954101562501 1.5013500000000002 Q 6.321829101562502 1.4964750000000002 6.296329101562502 1.4957250000000002 L 6.296329101562502 1.480725 Q 6.312079101562501 1.481475 6.337579101562501 1.4826000000000001 Q 6.3630791015625014 1.4837250000000002 6.3878291015625015 1.4829750000000002 Q 6.414079101562502 1.4822250000000001 6.447079101562501 1.481475 Q 6.480079101562501 1.480725 6.501079101562501 1.480725 M 6.4823291015625015 1.4942250000000001 Q 6.447829101562501 1.4942250000000001 6.437329101562502 1.5069750000000002 Q 6.426829101562501 1.5197250000000002 6.426829101562501 1.5587250000000001 L 6.426829101562501 1.9337250000000001 Q 6.426829101562501 1.9727250000000003 6.437704101562502 1.985475 Q 6.448579101562501 1.9982250000000001 6.483079101562502 1.9982250000000001 Q 6.564829101562501 1.9982250000000001 6.609829101562501 1.9686000000000001 Q 6.654829101562501 1.9389750000000001 6.672829101562502 1.8819750000000002 Q 6.690829101562501 1.8249750000000002 6.690829101562501 1.7432250000000002 Q 6.690829101562501 1.6592250000000002 6.670954101562502 1.6041000000000003 Q 6.651079101562502 1.5489750000000002 6.605704101562501 1.5216000000000003 Q 6.560329101562501 1.4942250000000001 6.4823291015625015 1.4942250000000001 M 7.425098510742189 1.480725 L 7.425098510742189 1.4957250000000002 Q 7.4108485107421895 1.4987250000000003 7.396598510742189 1.5141000000000002 Q 7.382348510742189 1.5294750000000001 7.36509851074219 1.5624750000000003 L 7.213598510742189 1.8624750000000003 L 7.20084851074219 1.8624750000000003 L 7.025348510742189 1.5384750000000003 Q 7.0103485107421895 1.5107250000000003 7.000223510742189 1.5036 Q 6.99009851074219 1.4964750000000002 6.981848510742189 1.4964750000000002 L 6.981848510742189 1.480725 Q 6.996848510742189 1.481475 7.0129735107421896 1.4822250000000001 Q 7.029098510742189 1.4829750000000002 7.047848510742189 1.4829750000000002 Q 7.072598510742189 1.4829750000000002 7.100723510742189 1.4826000000000001 Q 7.1288485107421895 1.4822250000000001 7.1528485107421895 1.480725 L 7.1528485107421895 1.4964750000000002 Q 7.13409851074219 1.4964750000000002 7.119848510742189 1.5009750000000002 Q 7.1055985107421895 1.5054750000000001 7.101098510742189 1.5174750000000001 Q 7.096598510742189 1.5294750000000001 7.10784851074219 1.551225 L 7.234598510742189 1.7942250000000002 L 7.22859851074219 1.7987250000000001 L 7.328348510742189 1.5999750000000001 Q 7.349348510742189 1.5587250000000001 7.348973510742189 1.5362250000000002 Q 7.348598510742189 1.5137250000000002 7.331348510742189 1.5051 Q 7.314098510742189 1.4964750000000002 7.282598510742189 1.4957250000000002 L 7.282598510742189 1.480725 Q 7.304348510742189 1.481475 7.326848510742189 1.4822250000000001 Q 7.349348510742189 1.4829750000000002 7.36884851074219 1.4829750000000002 Q 7.38834851074219 1.4829750000000002 7.401098510742189 1.4822250000000001 Q 7.41384851074219 1.481475 7.425098510742189 1.480725 M 7.2473485107421896 1.7837250000000002 L 7.2473485107421896 1.9322250000000003 Q 7.2473485107421896 1.9592250000000002 7.25184851074219 1.9727250000000003 Q 7.256348510742189 1.9862250000000001 7.2694735107421895 1.9907250000000003 Q 7.282598510742189 1.9952250000000002 7.308098510742189 1.9967250000000003 L 7.308098510742189 2.011725 Q 7.290848510742189 2.010225 7.264973510742189 2.00985 Q 7.239098510742189 2.009475 7.212848510742189 2.009475 Q 7.18359851074219 2.009475 7.15809851074219 2.00985 Q 7.13259851074219 2.010225 7.116848510742189 2.011725 L 7.116848510742189 1.9967250000000003 Q 7.142348510742189 1.9952250000000002 7.15547351074219 1.9907250000000003 Q 7.168598510742189 1.9862250000000001 7.173098510742189 1.9727250000000003 Q 7.17759851074219 1.9592250000000002 7.17759851074219 1.9322250000000003 L 7.17759851074219 1.7784750000000003 L 7.218098510742189 1.8249750000000002 L 7.2473485107421896 1.7837250000000002 M 7.6958433837890645 1.4702250000000001 Q 7.7670933837890646 1.4702250000000001 7.820718383789065 1.5024750000000002 Q 7.874343383789064 1.5347250000000001 7.903968383789064 1.5951000000000002 Q 7.933593383789065 1.6554750000000003 7.933593383789065 1.7417250000000002 Q 7.933593383789065 1.8257250000000003 7.903218383789064 1.8887250000000002 Q 7.872843383789065 1.9517250000000002 7.818843383789065 1.9869750000000002 Q 7.7648433837890645 2.022225 7.6950933837890645 2.022225 Q 7.6238433837890645 2.022225 7.570218383789065 1.9899750000000003 Q 7.516593383789065 1.9577250000000002 7.486968383789065 1.8969750000000003 Q 7.457343383789064 1.8362250000000002 7.457343383789064 1.750725 Q 7.457343383789064 1.6667250000000002 7.488093383789065 1.6037250000000003 Q 7.518843383789065 1.5407250000000001 7.572468383789064 1.5054750000000001 Q 7.6260933837890645 1.4702250000000001 7.6958433837890645 1.4702250000000001 M 7.692843383789064 1.4837250000000002 Q 7.644093383789064 1.4837250000000002 7.608093383789065 1.5174750000000001 Q 7.572093383789064 1.551225 7.552218383789064 1.610475 Q 7.5323433837890645 1.6697250000000001 7.5323433837890645 1.7477250000000002 Q 7.5323433837890645 1.8272250000000003 7.5544683837890645 1.8861 Q 7.576593383789064 1.9449750000000001 7.614468383789065 1.9768500000000002 Q 7.652343383789065 2.008725 7.698093383789065 2.008725 Q 7.746843383789065 2.008725 7.782843383789064 1.9749750000000001 Q 7.818843383789065 1.9412250000000002 7.838718383789065 1.8816000000000002 Q 7.8585933837890645 1.8219750000000001 7.8585933837890645 1.7447250000000003 Q 7.8585933837890645 1.6644750000000001 7.8364683837890645 1.6059750000000002 Q 7.814343383789065 1.5474750000000002 7.776843383789065 1.5156000000000003 Q 7.739343383789064 1.4837250000000002 7.692843383789064 1.4837250000000002 M 8.467628173828128 1.480725 L 8.467628173828128 1.4957250000000002 Q 8.442128173828127 1.4964750000000002 8.429003173828127 1.503225 Q 8.415878173828128 1.5099750000000003 8.411378173828128 1.5249750000000002 Q 8.406878173828128 1.539975 8.406878173828128 1.5677250000000003 L 8.406878173828128 1.7934750000000002 Q 8.406878173828128 1.8459750000000001 8.400128173828127 1.8849750000000003 Q 8.393378173828127 1.9239750000000002 8.376128173828127 1.9524750000000002 Q 8.357378173828128 1.9839750000000003 8.321378173828128 2.0031000000000003 Q 8.285378173828127 2.022225 8.238878173828127 2.022225 Q 8.202878173828127 2.022225 8.170253173828128 2.0136000000000003 Q 8.137628173828128 2.0049750000000004 8.112878173828127 1.9817250000000002 Q 8.091128173828128 1.9607250000000003 8.078753173828128 1.9374750000000003 Q 8.066378173828127 1.9142250000000003 8.061878173828127 1.8804750000000001 Q 8.057378173828127 1.8467250000000002 8.057378173828127 1.7957250000000002 L 8.057378173828127 1.5602250000000002 Q 8.057378173828127 1.5324750000000003 8.052878173828127 1.5193500000000002 Q 8.048378173828127 1.5062250000000001 8.035253173828128 1.5013500000000002 Q 8.022128173828127 1.4964750000000002 7.996628173828127 1.4957250000000002 L 7.996628173828127 1.480725 Q 8.012378173828127 1.481475 8.037878173828128 1.4822250000000001 Q 8.063378173828127 1.4829750000000002 8.092628173828128 1.4829750000000002 Q 8.118878173828127 1.4829750000000002 8.144753173828127 1.4822250000000001 Q 8.170628173828128 1.481475 8.187878173828127 1.480725 L 8.187878173828127 1.4957250000000002 Q 8.162378173828127 1.4964750000000002 8.149253173828127 1.5013500000000002 Q 8.136128173828128 1.5062250000000001 8.131628173828128 1.5193500000000002 Q 8.127128173828128 1.5324750000000003 8.127128173828128 1.5602250000000002 L 8.127128173828128 1.8084750000000003 Q 8.127128173828128 1.8467250000000002 8.130878173828128 1.8808500000000001 Q 8.134628173828128 1.914975 8.146253173828127 1.9408500000000002 Q 8.157878173828127 1.9667250000000003 8.181878173828128 1.9813500000000002 Q 8.205878173828127 1.9959750000000003 8.245628173828127 1.9959750000000003 Q 8.302628173828127 1.9959750000000003 8.333753173828127 1.9708500000000002 Q 8.364878173828128 1.9457250000000001 8.377253173828127 1.9014750000000002 Q 8.389628173828127 1.8572250000000001 8.389628173828127 1.8017250000000002 L 8.389628173828127 1.5677250000000003 Q 8.389628173828127 1.539975 8.383253173828127 1.5249750000000002 Q 8.376878173828127 1.5099750000000003 8.361878173828128 1.503225 Q 8.346878173828127 1.4964750000000002 8.321378173828128 1.4957250000000002 L 8.321378173828128 1.480725 Q 8.334878173828127 1.481475 8.357003173828128 1.4822250000000001 Q 8.379128173828127 1.4829750000000002 8.397878173828127 1.4829750000000002 Q 8.417378173828128 1.4829750000000002 8.436503173828127 1.4822250000000001 Q 8.455628173828128 1.481475 8.467628173828128 1.480725 M 8.526883300781252 1.480725 Q 8.542633300781253 1.481475 8.568133300781252 1.4822250000000001 Q 8.593633300781253 1.4829750000000002 8.618383300781252 1.4829750000000002 Q 8.653633300781253 1.4829750000000002 8.685883300781253 1.4822250000000001 Q 8.718133300781252 1.481475 8.731633300781253 1.481475 Q 8.792383300781253 1.481475 8.832508300781253 1.4987250000000003 Q 8.872633300781253 1.515975 8.892508300781254 1.5456000000000003 Q 8.912383300781253 1.575225 8.912383300781253 1.6119750000000002 Q 8.912383300781253 1.6344750000000001 8.903383300781252 1.6599750000000002 Q 8.894383300781254 1.6854750000000003 8.872258300781253 1.7079750000000002 Q 8.850133300781252 1.7304750000000002 8.811883300781252 1.7451000000000003 Q 8.773633300781253 1.7597250000000002 8.715133300781252 1.7597250000000002 L 8.643133300781253 1.7597250000000002 L 8.643133300781253 1.7447250000000003 L 8.707633300781252 1.7447250000000003 Q 8.760883300781252 1.7447250000000003 8.789008300781253 1.72785 Q 8.817133300781252 1.7109750000000001 8.827258300781253 1.6828500000000002 Q 8.837383300781253 1.6547250000000002 8.837383300781253 1.6202250000000002 Q 8.837383300781253 1.5609750000000002 8.809258300781252 1.52835 Q 8.781133300781253 1.4957250000000002 8.712883300781252 1.4957250000000002 Q 8.678383300781253 1.4957250000000002 8.667883300781252 1.5084750000000002 Q 8.657383300781254 1.5212250000000003 8.657383300781254 1.5602250000000002 L 8.657383300781254 1.9322250000000003 Q 8.657383300781254 1.9592250000000002 8.661883300781252 1.9727250000000003 Q 8.666383300781252 1.9862250000000001 8.679508300781253 1.9907250000000003 Q 8.692633300781253 1.9952250000000002 8.718133300781252 1.9967250000000003 L 8.718133300781252 2.011725 Q 8.700883300781253 2.010225 8.675008300781252 2.00985 Q 8.649133300781253 2.009475 8.622883300781252 2.009475 Q 8.593633300781253 2.009475 8.568133300781252 2.00985 Q 8.542633300781253 2.010225 8.526883300781252 2.011725 L 8.526883300781252 1.9967250000000003 Q 8.552383300781253 1.9952250000000002 8.565508300781254 1.9907250000000003 Q 8.578633300781252 1.9862250000000001 8.583133300781252 1.9727250000000003 Q 8.587633300781253 1.9592250000000002 8.587633300781253 1.9322250000000003 L 8.587633300781253 1.5602250000000002 Q 8.587633300781253 1.5324750000000003 8.583133300781252 1.5193500000000002 Q 8.578633300781252 1.5062250000000001 8.565508300781254 1.5013500000000002 Q 8.552383300781253 1.4964750000000002 8.526883300781252 1.4957250000000002 L 8.526883300781252 1.480725 M 8.646133300781253 1.7469750000000002 Q 8.686633300781253 1.7484750000000002 8.709883300781252 1.75035 Q 8.733133300781253 1.7522250000000001 8.747758300781253 1.7537250000000002 Q 8.762383300781252 1.7552250000000003 8.775883300781253 1.7574750000000001 Q 8.826133300781253 1.7657250000000002 8.848258300781252 1.7878500000000002 Q 8.870383300781253 1.8099750000000001 8.880883300781253 1.856475 L 8.899633300781252 1.932975 Q 8.907133300781252 1.9659750000000003 8.915008300781253 1.9806000000000001 Q 8.922883300781253 1.9952250000000002 8.939383300781254 1.9944750000000002 Q 8.952133300781252 1.9937250000000002 8.960758300781253 1.9862250000000001 Q 8.969383300781253 1.9787250000000003 8.979133300781253 1.9659750000000003 L 8.990383300781252 1.9742250000000001 Q 8.974633300781253 1.9974750000000001 8.957758300781252 2.00985 Q 8.940883300781252 2.022225 8.910133300781252 2.022225 Q 8.882383300781253 2.022225 8.861383300781252 2.0057250000000004 Q 8.840383300781253 1.9892250000000002 8.829883300781253 1.9412250000000002 L 8.813383300781252 1.8662250000000002 Q 8.806633300781252 1.8339750000000001 8.798008300781254 1.8103500000000001 Q 8.789383300781253 1.7867250000000001 8.774008300781253 1.7732250000000003 Q 8.758633300781252 1.7597250000000002 8.728633300781253 1.7597250000000002 L 8.647633300781253 1.7597250000000002 L 8.646133300781253 1.7469750000000002 M 9.18089099121094 1.4724750000000002 Q 9.21839099121094 1.4724750000000002 9.237890991210941 1.4811 Q 9.25739099121094 1.4897250000000002 9.27239099121094 1.5002250000000001 Q 9.281390991210941 1.5054750000000001 9.287015991210941 1.5081000000000002 Q 9.292640991210941 1.5107250000000003 9.29789099121094 1.5107250000000003 Q 9.30539099121094 1.5107250000000003 9.30876599121094 1.5024750000000002 Q 9.31214099121094 1.4942250000000001 9.31439099121094 1.4777250000000002 L 9.331640991210941 1.4777250000000002 Q 9.330890991210941 1.4904750000000002 9.329765991210941 1.5081000000000002 Q 9.328640991210941 1.5257250000000002 9.328265991210941 1.5546000000000002 Q 9.327890991210941 1.5834750000000002 9.327890991210941 1.6307250000000002 L 9.31064099121094 1.6307250000000002 Q 9.30839099121094 1.5947250000000002 9.29489099121094 1.5617250000000003 Q 9.281390991210941 1.5287250000000001 9.25551599121094 1.5077250000000002 Q 9.22964099121094 1.4867250000000003 9.187640991210941 1.4867250000000003 Q 9.147890991210941 1.4867250000000003 9.12201599121094 1.5107250000000003 Q 9.096140991210941 1.5347250000000001 9.096140991210941 1.5737250000000003 Q 9.096140991210941 1.6074750000000002 9.11339099121094 1.6303500000000002 Q 9.13064099121094 1.6532250000000002 9.15951599121094 1.6716000000000002 Q 9.188390991210941 1.6899750000000002 9.22214099121094 1.7109750000000001 Q 9.26114099121094 1.7349750000000002 9.291515991210941 1.7586000000000002 Q 9.32189099121094 1.7822250000000002 9.339515991210941 1.8107250000000001 Q 9.35714099121094 1.839225 9.35714099121094 1.879725 Q 9.35714099121094 1.9277250000000001 9.335390991210941 1.9592250000000002 Q 9.31364099121094 1.9907250000000003 9.27764099121094 2.006475 Q 9.241640991210941 2.022225 9.198140991210941 2.022225 Q 9.15839099121094 2.022225 9.13514099121094 2.0132250000000003 Q 9.11189099121094 2.0042250000000004 9.095390991210941 1.9944750000000002 Q 9.07889099121094 1.9839750000000003 9.06989099121094 1.9839750000000003 Q 9.06239099121094 1.9839750000000003 9.059015991210941 1.9922250000000001 Q 9.055640991210941 2.0004750000000002 9.053390991210941 2.0169750000000004 L 9.03614099121094 2.0169750000000004 Q 9.03764099121094 2.0012250000000003 9.03801599121094 1.97985 Q 9.03839099121094 1.9584750000000002 9.03876599121094 1.9239750000000002 Q 9.03914099121094 1.8894750000000002 9.03914099121094 1.8369750000000002 L 9.056390991210941 1.8369750000000002 Q 9.05939099121094 1.8819750000000002 9.07326599121094 1.9209750000000003 Q 9.08714099121094 1.9599750000000002 9.11601599121094 1.9836000000000003 Q 9.144890991210941 2.007225 9.192890991210941 2.007225 Q 9.21764099121094 2.007225 9.239765991210941 1.9971 Q 9.26189099121094 1.9869750000000002 9.27614099121094 1.9648500000000002 Q 9.290390991210941 1.9427250000000003 9.290390991210941 1.9074750000000003 Q 9.290390991210941 1.8767250000000002 9.27576599121094 1.8538500000000002 Q 9.26114099121094 1.8309750000000002 9.234890991210941 1.8111000000000002 Q 9.20864099121094 1.7912250000000003 9.17339099121094 1.7702250000000002 Q 9.13814099121094 1.7484750000000002 9.10739099121094 1.7259750000000003 Q 9.07664099121094 1.703475 9.058265991210941 1.6738500000000003 Q 9.03989099121094 1.6442250000000003 9.03989099121094 1.6022250000000002 Q 9.03989099121094 1.5579750000000003 9.05976599121094 1.5291000000000001 Q 9.07964099121094 1.5002250000000001 9.11189099121094 1.4863500000000003 Q 9.144140991210941 1.4724750000000002 9.18089099121094 1.4724750000000002 M 9.807124511718753 1.480725 Q 9.804124511718753 1.5069750000000002 9.802999511718753 1.5317250000000002 Q 9.801874511718752 1.5564750000000003 9.801874511718752 1.5692250000000003 Q 9.801874511718752 1.5827250000000002 9.802624511718752 1.5951000000000002 Q 9.803374511718753 1.6074750000000002 9.804124511718753 1.6157250000000003 L 9.786874511718754 1.6157250000000003 Q 9.782374511718753 1.5714750000000002 9.774124511718753 1.5456000000000003 Q 9.765874511718753 1.5197250000000002 9.745999511718754 1.5088500000000002 Q 9.726124511718753 1.4979750000000003 9.686374511718753 1.4979750000000003 L 9.624124511718753 1.4979750000000003 Q 9.598624511718754 1.4979750000000003 9.585499511718753 1.5021000000000002 Q 9.572374511718753 1.5062250000000001 9.567874511718752 1.5193500000000002 Q 9.563374511718754 1.5324750000000003 9.563374511718754 1.5602250000000002 L 9.563374511718754 1.9322250000000003 Q 9.563374511718754 1.9592250000000002 9.567874511718752 1.9727250000000003 Q 9.572374511718753 1.9862250000000001 9.585499511718753 1.9903500000000003 Q 9.598624511718754 1.9944750000000002 9.624124511718753 1.9944750000000002 L 9.678874511718753 1.9944750000000002 Q 9.726124511718753 1.9944750000000002 9.750499511718754 1.9817250000000002 Q 9.774874511718753 1.9689750000000001 9.785749511718754 1.9401000000000002 Q 9.796624511718754 1.9112250000000002 9.801874511718752 1.8617250000000003 L 9.819124511718753 1.8617250000000003 Q 9.816874511718753 1.8819750000000002 9.816874511718753 1.9157250000000001 Q 9.816874511718753 1.9299750000000002 9.817999511718753 1.9566000000000001 Q 9.819124511718753 1.9832250000000002 9.822124511718753 2.011725 Q 9.783874511718754 2.010225 9.735874511718754 2.00985 Q 9.687874511718753 2.009475 9.650374511718754 2.009475 Q 9.633874511718753 2.009475 9.607999511718754 2.009475 Q 9.582124511718753 2.009475 9.552124511718754 2.00985 Q 9.522124511718753 2.010225 9.491374511718753 2.0106 Q 9.460624511718754 2.010975 9.432874511718753 2.011725 L 9.432874511718753 1.9967250000000003 Q 9.458374511718754 1.9952250000000002 9.471499511718754 1.9907250000000003 Q 9.484624511718753 1.9862250000000001 9.489124511718753 1.9727250000000003 Q 9.493624511718753 1.9592250000000002 9.493624511718753 1.9322250000000003 L 9.493624511718753 1.5602250000000002 Q 9.493624511718753 1.5324750000000003 9.489124511718753 1.5193500000000002 Q 9.484624511718753 1.5062250000000001 9.471499511718754 1.5013500000000002 Q 9.458374511718754 1.4964750000000002 9.432874511718753 1.4957250000000002 L 9.432874511718753 1.480725 Q 9.460624511718754 1.481475 9.491374511718753 1.4818500000000001 Q 9.522124511718753 1.4822250000000001 9.552124511718754 1.4826000000000001 Q 9.582124511718753 1.4829750000000002 9.607999511718754 1.4829750000000002 Q 9.633874511718753 1.4829750000000002 9.650374511718754 1.4829750000000002 Q 9.684874511718753 1.4829750000000002 9.728749511718753 1.4826000000000001 Q 9.772624511718753 1.4822250000000001 9.807124511718753 1.480725 M 9.678124511718753 1.7372250000000002 Q 9.678124511718753 1.7372250000000002 9.678124511718753 1.7447250000000003 Q 9.678124511718753 1.7522250000000001 9.678124511718753 1.7522250000000001 L 9.540874511718753 1.7522250000000001 Q 9.540874511718753 1.7522250000000001 9.540874511718753 1.7447250000000003 Q 9.540874511718753 1.7372250000000002 9.540874511718753 1.7372250000000002 L 9.678124511718753 1.7372250000000002 M 9.699874511718754 1.6382250000000003 Q 9.696874511718754 1.680975 9.697249511718754 1.703475 Q 9.697624511718754 1.7259750000000003 9.697624511718754 1.7447250000000003 Q 9.697624511718754 1.7634750000000001 9.698374511718754 1.785975 Q 9.699124511718754 1.8084750000000003 9.702124511718754 1.8512250000000001 L 9.684874511718753 1.8512250000000001 Q 9.681874511718753 1.8272250000000003 9.677749511718753 1.8043500000000001 Q 9.673624511718753 1.7814750000000001 9.659749511718754 1.7668500000000003 Q 9.645874511718754 1.7522250000000001 9.612874511718752 1.7522250000000001 L 9.612874511718752 1.7372250000000002 Q 9.637624511718753 1.7372250000000002 9.650749511718754 1.7271 Q 9.663874511718753 1.7169750000000001 9.669874511718753 1.7012250000000002 Q 9.675874511718753 1.6854750000000003 9.678124511718753 1.6686 Q 9.680374511718753 1.6517250000000003 9.682624511718753 1.6382250000000003 L 9.699874511718754 1.6382250000000003 M 10.088381103515628 1.480725 L 10.088381103515628 1.4957250000000002 Q 10.062881103515629 1.4964750000000002 10.049756103515628 1.5013500000000002 Q 10.036631103515628 1.5062250000000001 10.032131103515628 1.5193500000000002 Q 10.02763110351563 1.5324750000000003 10.02763110351563 1.5602250000000002 L 10.02763110351563 1.9322250000000003 Q 10.02763110351563 1.9592250000000002 10.032131103515628 1.9727250000000003 Q 10.036631103515628 1.9862250000000001 10.049756103515628 1.9903500000000003 Q 10.062881103515629 1.9944750000000002 10.088381103515628 1.9944750000000002 L 10.143131103515628 1.9944750000000002 Q 10.178381103515628 1.9944750000000002 10.200506103515629 1.9869750000000002 Q 10.222631103515628 1.9794750000000003 10.235756103515628 1.9633500000000002 Q 10.248881103515629 1.9472250000000002 10.25563110351563 1.9202250000000003 Q 10.26238110351563 1.8932250000000002 10.266131103515628 1.8542250000000002 L 10.283381103515628 1.8542250000000002 Q 10.281131103515628 1.8774750000000002 10.281131103515628 1.9157250000000001 Q 10.281131103515628 1.9299750000000002 10.282256103515628 1.9566000000000001 Q 10.283381103515628 1.9832250000000002 10.286381103515629 2.011725 Q 10.248131103515629 2.010225 10.200131103515629 2.00985 Q 10.152131103515629 2.009475 10.114631103515629 2.009475 Q 10.098131103515628 2.009475 10.07225610351563 2.009475 Q 10.046381103515628 2.009475 10.016381103515629 2.00985 Q 9.986381103515628 2.010225 9.955631103515628 2.0106 Q 9.924881103515629 2.010975 9.897131103515628 2.011725 L 9.897131103515628 1.9967250000000003 Q 9.922631103515629 1.9952250000000002 9.93575610351563 1.9907250000000003 Q 9.948881103515628 1.9862250000000001 9.953381103515628 1.9727250000000003 Q 9.957881103515628 1.9592250000000002 9.957881103515628 1.9322250000000003 L 9.957881103515628 1.5602250000000002 Q 9.957881103515628 1.5324750000000003 9.953381103515628 1.5193500000000002 Q 9.948881103515628 1.5062250000000001 9.93575610351563 1.5013500000000002 Q 9.922631103515629 1.4964750000000002 9.897131103515628 1.4957250000000002 L 9.897131103515628 1.480725 Q 9.912881103515629 1.481475 9.938381103515628 1.4822250000000001 Q 9.963881103515629 1.4829750000000002 9.993131103515628 1.4829750000000002 Q 10.019381103515629 1.4829750000000002 10.045256103515628 1.4822250000000001 Q 10.07113110351563 1.481475 10.088381103515628 1.480725 M 10.719890625000003 1.480725 Q 10.716890625000003 1.5092250000000003 10.715765625000003 1.5358500000000002 Q 10.714640625000003 1.5624750000000003 10.714640625000003 1.5767250000000002 Q 10.714640625000003 1.5947250000000002 10.715390625000003 1.610475 Q 10.716140625000003 1.6262250000000003 10.716890625000003 1.6382250000000003 L 10.699640625000004 1.6382250000000003 Q 10.694390625000004 1.5857250000000003 10.685390625000004 1.5553500000000002 Q 10.676390625000003 1.5249750000000002 10.653890625000004 1.5114750000000003 Q 10.631390625000003 1.4979750000000003 10.584140625000003 1.4979750000000003 L 10.536890625000003 1.4979750000000003 Q 10.511390625000004 1.4979750000000003 10.498265625000004 1.5021000000000002 Q 10.485140625000003 1.5062250000000001 10.480640625000003 1.5193500000000002 Q 10.476140625000005 1.5324750000000003 10.476140625000005 1.5602250000000002 L 10.476140625000005 1.9322250000000003 Q 10.476140625000005 1.9592250000000002 10.481765625000003 1.9727250000000003 Q 10.487390625000003 1.9862250000000001 10.503890625000004 1.9907250000000003 Q 10.520390625000005 1.9952250000000002 10.551890625000004 1.9967250000000003 L 10.551890625000004 2.011725 Q 10.532390625000003 2.010225 10.502390625000004 2.00985 Q 10.472390625000005 2.009475 10.441640625000003 2.009475 Q 10.412390625000004 2.009475 10.386890625000003 2.00985 Q 10.361390625000004 2.010225 10.345640625000003 2.011725 L 10.345640625000003 1.9967250000000003 Q 10.371140625000004 1.9952250000000002 10.384265625000005 1.9907250000000003 Q 10.397390625000003 1.9862250000000001 10.401890625000004 1.9727250000000003 Q 10.406390625000004 1.9592250000000002 10.406390625000004 1.9322250000000003 L 10.406390625000004 1.5602250000000002 Q 10.406390625000004 1.5324750000000003 10.401890625000004 1.5193500000000002 Q 10.397390625000003 1.5062250000000001 10.384265625000005 1.5013500000000002 Q 10.371140625000004 1.4964750000000002 10.345640625000003 1.4957250000000002 L 10.345640625000003 1.480725 Q 10.373390625000004 1.481475 10.404140625000004 1.4818500000000001 Q 10.434890625000003 1.4822250000000001 10.464890625000004 1.4826000000000001 Q 10.494890625000004 1.4829750000000002 10.520765625000005 1.4829750000000002 Q 10.546640625000004 1.4829750000000002 10.563140625000004 1.4829750000000002 Q 10.597640625000004 1.4829750000000002 10.641515625000004 1.4826000000000001 Q 10.685390625000004 1.4822250000000001 10.719890625000003 1.480725 M 10.603640625000004 1.7447250000000003 Q 10.603640625000004 1.7447250000000003 10.603640625000004 1.7522250000000001 Q 10.603640625000004 1.7597250000000002 10.603640625000004 1.7597250000000002 L 10.453640625000004 1.7597250000000002 Q 10.453640625000004 1.7597250000000002 10.453640625000004 1.7522250000000001 Q 10.453640625000004 1.7447250000000003 10.453640625000004 1.7447250000000003 L 10.603640625000004 1.7447250000000003 M 10.617890625000005 1.645725 Q 10.614890625000005 1.6884750000000002 10.615265625000005 1.7109750000000001 Q 10.615640625000005 1.7334750000000003 10.615640625000005 1.7522250000000001 Q 10.615640625000005 1.7709750000000002 10.616390625000005 1.7934750000000002 Q 10.617140625000005 1.8159750000000001 10.620140625000003 1.8587250000000002 L 10.602890625000004 1.8587250000000002 Q 10.599890625000004 1.8347250000000002 10.595765625000004 1.8118500000000002 Q 10.591640625000004 1.7889750000000002 10.577765625000003 1.77435 Q 10.563890625000004 1.7597250000000002 10.530890625000003 1.7597250000000002 L 10.530890625000003 1.7447250000000003 Q 10.555640625000004 1.7447250000000003 10.568765625000005 1.7346000000000001 Q 10.581890625000003 1.7244750000000002 10.587890625000004 1.7087250000000003 Q 10.593890625000004 1.6929750000000001 10.596140625000004 1.6761000000000001 Q 10.598390625000004 1.6592250000000002 10.600640625000004 1.645725 L 10.617890625000005 1.645725" fill="#67a97b" fill-rule="nonzero"></path></g><g clip-path="url(&quot;#SvgjsClipPath1001&quot;)"><g clip-path="url(&quot;#SvgjsClipPath1000e2f2015f-872a-4df2-9994-2eabdaa23985&quot;)"><path d=" M 0.696990883988061 -2.2556902272450063 L 0.16147267571527796 -1.7201287229068754 L 0.16147267571527796 -0.9627939478400723 L 0.696990883988061 -0.4272757395672895 L 1.4543256590548639 -0.4272757395672895 L 1.9898438673276468 -0.9627939478400723 L 1.9898438673276468 -1.7201287229068754 L 1.4543256590548639 -2.2556902272450063 Z M 1.4714600769163257 -2.297059617684998 L 0.6798564661265993 -2.297059617684998 L 0.1201465813406345 -1.737219844702989 L 0.1201465813406345 -0.9456595299786106 L 0.6798564661265993 -0.38590634912729804 L 1.4714600769163257 -0.38590634912729804 L 2.0312132577676385 -0.9456595299786106 L 2.0312132577676385 -1.737219844702989 Z" fill="#67a97b" transform="matrix(1,0,0,1,0,0)" fill-rule="evenodd"></path></g><g clip-path="url(&quot;#SvgjsClipPath1000e2f2015f-872a-4df2-9994-2eabdaa23985&quot;)"><path d=" M 0.7365634877161115 -2.1510328132826104 L 0.2570595639872729 -1.6715288895537719 L 0.2570595639872729 -0.9933501459594064 L 0.7365634877161115 -0.5138462222305678 L 1.4146989352451287 -0.5138462222305678 L 1.8942028589739672 -0.9933501459594064 L 1.8942028589739672 -1.6714855934884238 L 1.4146989352451287 -2.1509895172172624 Z M 1.4318766491719384 -2.192402203722602 L 0.7194290698546496 -2.192402203722602 L 0.2156577014982704 -1.6886200113498855 L 0.2156577014982704 -0.976172432032597 L 0.7194290698546498 -0.4723902396598805 L 1.4318766491719384 -0.4723902396598805 L 1.9356588415446547 -0.976172432032597 L 1.9356588415446547 -1.6886200113498855 Z" fill="#67a97b" transform="matrix(1,0,0,1,0,0)" fill-rule="evenodd"></path></g><g clip-path="url(&quot;#SvgjsClipPath1000e2f2015f-872a-4df2-9994-2eabdaa23985&quot;)"><path d=" M 1.7996659002866606 -2.056409262464608 L 0.35166146677260124 -2.056409262464608 L 0.35166146677260124 -0.6084048289505484 L 1.7996659002866606 -0.6084048289505484 Z M 0.3102812523162728 -2.0977786529045996 L 0.3102812523162728 -0.5670246144942199 L 1.8410352907266523 -0.5670246144942199 L 1.8410352907266523 -2.097778652904599 Z" fill="#67a97b" transform="matrix(1,0,0,1,0,0)" fill-rule="evenodd"></path></g><g clip-path="url(&quot;#SvgjsClipPath1000e2f2015f-872a-4df2-9994-2eabdaa23985&quot;)"><path d=" M 2.1063535791790517 -1.3324016336994098 L 1.0824016336994098 -2.3562994590973663 L 0.058503808301453075 -1.3324016336994098 L 1.0824016336994098 -0.30844968821976804 Z M 1.0824016336994098 -2.4148032673988196 L 0 -1.3324016336994098 L 1.0824016336994098 -0.25 L 2.1648032673988196 -1.3324016336994098 Z" fill="#67a97b" transform="matrix(1,0,0,1,0,0)" fill-rule="evenodd"></path></g><path d=" M 0.8734672407877497 -0.7887739073571052 C 0.8531404495445682 -0.7887739073571052 0.8360474659991658 -0.795703495280917 0.822188290151542 -0.8095626711285404 C 0.8083291143039184 -0.8234218469761643 0.8013995263801066 -0.8405148305215668 0.8013995263801066 -0.8608416217647481 L 0.8013995263801066 -1.7991078266488718 C 0.8013995263801066 -1.8203585629485615 0.8083291143039184 -1.837682532758091 0.822188290151542 -1.8510797360774607 C 0.8360474659991658 -1.8644769393968303 0.8531404495445682 -1.8711755410565152 0.8734672407877497 -1.8711755410565152 L 1.4999019891003402 -1.8711755410565152 C 1.5211527254000299 -1.8711755410565152 1.5382457089454324 -1.8649389119250843 1.551180939736548 -1.852465653662223 C 1.5641161705276634 -1.8399923953993615 1.5705837859232212 -1.8235923706463402 1.5705837859232212 -1.803265579403159 C 1.5705837859232212 -1.7838627332164858 1.5641161705276634 -1.7681556672558456 1.551180939736548 -1.7561443815212383 C 1.5382457089454324 -1.7441330957866312 1.5211527254000299 -1.7381274529193276 1.4999019891003402 -1.7381274529193276 L 0.9455349551953929 -1.7381274529193276 L 0.9455349551953929 -1.401349479822072 L 1.3432933020221927 -1.401349479822072 C 1.3645440383218823 -1.401349479822072 1.3816370218672849 -1.3951128506906414 1.3945722526584003 -1.3826395924277801 C 1.4075074834495158 -1.3701663341649186 1.4139750988450734 -1.3542282819401514 1.4139750988450734 -1.3348254357534783 C 1.4139750988450734 -1.315422589566805 1.4075074834495158 -1.299484537342038 1.3945722526584003 -1.2870112790791768 C 1.3816370218672849 -1.2745380208163153 1.3645440383218823 -1.2683013916848846 1.3432933020221927 -1.2683013916848846 L 0.9455349551953929 -1.2683013916848846 L 0.9455349551953929 -0.9218219954942926 L 1.4999019891003402 -0.9218219954942926 C 1.5211527254000299 -0.9218219954942926 1.5382457089454324 -0.9158163526269889 1.551180939736548 -0.9038050668923816 C 1.5641161705276634 -0.8917937811577746 1.5705837859232212 -0.8760867151971343 1.5705837859232212 -0.856683869010461 C 1.5705837859232212 -0.8363570777672797 1.5641161705276634 -0.8199570530142584 1.551180939736548 -0.8074837947513971 C 1.5382457089454324 -0.7950105364885358 1.5211527254000299 -0.7887739073571052 1.4999019891003402 -0.7887739073571052 L 0.8734672407877497 -0.7887739073571052" fill="#67a97b" transform="matrix(1,0,0,1,0,0)" fill-rule="nonzero"></path></g></g><defs><clipPath id="SvgjsClipPath1001"><path d=" M 0 -2.4148032673988196 h 2.1648032673988196 v 2.1648032673988196 h -2.1648032673988196 Z"></path></clipPath><clipPath id="SvgjsClipPath1000e2f2015f-872a-4df2-9994-2eabdaa23985"><path d=" M 0 -2.4148032673988196 L 2.1648032673988196 -2.4148032673988196 L 2.1648032673988196 -0.25 L 0 -0.25 Z"></path></clipPath></defs></svg>